<?xml version="1.0" encoding="UTF-8"?>
<svg id="Layer_2" data-name="Layer 2" xmlns="http://www.w3.org/2000/svg" viewBox="0 0 921.24 1292">
  <defs>
    <style>
      .cls-1 {
        fill: #fff;
      }

      .cls-2 {
        fill: #1f3a6f;
      }
    </style>
  </defs>
  <g id="Layer_1-2" data-name="Layer 1">
    <g>
      <path class="cls-2" d="M885.04,281.32c-23.2-54.85-56.41-104.11-98.71-146.41-42.3-42.3-91.56-75.51-146.41-98.71C583.13,12.18,522.8,0,460.62,0s-122.5,12.18-179.3,36.2c-54.85,23.2-104.11,56.41-146.41,98.71-42.3,42.3-75.51,91.56-98.71,146.41C12.18,338.12,0,398.44,0,460.62s12.18,122.5,36.2,179.3c23.2,54.85,56.41,104.11,98.71,146.41,42.3,42.3,91.56,75.51,146.41,98.71,3.8,1.61,7.62,3.16,11.46,4.66v226.29c0,59.88,48.54,108.43,108.43,108.43h118.82c59.88,0,108.43-48.54,108.43-108.43v-226.29c3.83-1.5,7.65-3.05,11.46-4.66,54.85-23.2,104.11-56.41,146.41-98.71,42.3-42.3,75.51-91.56,98.71-146.41,24.02-56.79,36.2-117.12,36.2-179.3s-12.18-122.5-36.2-179.3ZM610.61,881.61h-299.99C137.77,819.84,13.73,654.44,13.73,460.62,13.73,214.21,214.21,13.73,460.62,13.73s446.89,200.47,446.89,446.89c0,193.82-124.03,359.22-296.9,420.99Z"/>
      <path class="cls-1" d="M559.07,989.63h-196.91c-3.79,0-6.87-3.07-6.87-6.87s3.07-6.87,6.87-6.87h196.91c3.79,0,6.87,3.07,6.87,6.87s-3.07,6.87-6.87,6.87Z"/>
      <path class="cls-1" d="M559.07,1059.88h-196.91c-3.79,0-6.87-3.07-6.87-6.87s3.07-6.87,6.87-6.87h196.91c3.79,0,6.87,3.07,6.87,6.87s-3.07,6.87-6.87,6.87Z"/>
      <path class="cls-1" d="M559.07,1130.13h-196.91c-3.79,0-6.87-3.07-6.87-6.87s3.07-6.87,6.87-6.87h196.91c3.79,0,6.87,3.07,6.87,6.87s-3.07,6.87-6.87,6.87Z"/>
      <path class="cls-2" d="M525.68,1292h-130.12c-3.79,0-6.87-3.07-6.87-6.87s3.07-6.87,6.87-6.87h130.12c3.79,0,6.87,3.07,6.87,6.87s-3.07,6.87-6.87,6.87Z"/>
      <circle class="cls-2" cx="460.62" cy="460.62" r="212.13"/>
      <path class="cls-2" d="M459.36,197.45c-3.78,0-6.85-3.05-6.87-6.83l-.51-109.28c-.02-3.79,3.04-6.88,6.83-6.9h.03c3.78,0,6.85,3.05,6.87,6.83l.51,109.28c.02,3.79-3.04,6.88-6.83,6.9h-.03Z"/>
      <path class="cls-2" d="M650.68,275.65c-1.75,0-3.49-.66-4.83-1.99-2.69-2.67-2.71-7.02-.05-9.71l76.91-77.63c2.67-2.69,7.02-2.71,9.71-.05,2.69,2.67,2.71,7.02.05,9.71l-76.91,77.63c-1.34,1.35-3.11,2.03-4.88,2.03Z"/>
      <path class="cls-2" d="M730.66,466.23c-3.78,0-6.85-3.05-6.87-6.83-.02-3.79,3.04-6.88,6.83-6.9l109.28-.51h.03c3.78,0,6.85,3.05,6.87,6.83.02,3.79-3.04,6.88-6.83,6.9l-109.28.51h-.03Z"/>
      <path class="cls-2" d="M730.09,734.46c-1.75,0-3.49-.66-4.83-1.99l-77.63-76.91c-2.69-2.67-2.71-7.02-.05-9.71,2.67-2.69,7.02-2.71,9.71-.05l77.63,76.91c2.69,2.67,2.71,7.02.05,9.71-1.34,1.35-3.11,2.03-4.88,2.03Z"/>
      <path class="cls-2" d="M462.39,846.81c-3.78,0-6.85-3.05-6.87-6.83l-.51-109.28c-.02-3.79,3.04-6.88,6.83-6.9h.03c3.78,0,6.85,3.05,6.87,6.83l.51,109.28c.02,3.79-3.04,6.88-6.83,6.9h-.03Z"/>
      <path class="cls-2" d="M193.65,736.96c-1.75,0-3.49-.66-4.83-1.99-2.69-2.67-2.71-7.02-.05-9.71l76.91-77.63c2.67-2.69,7.02-2.71,9.71-.05,2.69,2.67,2.71,7.02.05,9.71l-76.91,77.63c-1.34,1.36-3.11,2.03-4.88,2.03Z"/>
      <path class="cls-2" d="M81.3,469.25c-3.78,0-6.85-3.05-6.87-6.83-.02-3.79,3.04-6.88,6.83-6.9l109.28-.51h.03c3.78,0,6.85,3.05,6.87,6.83.02,3.79-3.04,6.88-6.83,6.9l-109.28.51h-.03Z"/>
      <path class="cls-2" d="M268.78,277.43c-1.75,0-3.49-.66-4.83-1.99l-77.63-76.91c-2.69-2.67-2.71-7.02-.05-9.71,2.67-2.69,7.02-2.71,9.71-.05l77.63,76.91c2.69,2.67,2.71,7.02.05,9.71-1.34,1.35-3.11,2.03-4.88,2.03Z"/>
    </g>
  </g>
</svg>