<?xml version="1.0" encoding="UTF-8"?>
<svg id="Layer_2" data-name="Layer 2" xmlns="http://www.w3.org/2000/svg" viewBox="0 0 907.51 1285.13">
  <defs>
    <style>
      .cls-1 {
        fill: #fff;
      }

      .cls-2 {
        fill: #1f3a6f;
      }
    </style>
  </defs>
  <g id="Layer_1-2" data-name="Layer 1">
    <g>
      <path class="cls-2" d="M907.51,453.75C907.51,203.15,704.36,0,453.76,0S0,203.15,0,453.75c0,191.31,118.4,354.95,285.92,421.69v233.68c0,59.88,48.54,108.43,108.43,108.43h118.82c59.88,0,108.43-48.55,108.43-108.43v-233.68c167.51-66.73,285.92-230.38,285.92-421.69Z"/>
      <path class="cls-1" d="M519.11,771.84c-21.79,4.47-44.38,6.74-67.52,6.59-176.62-1.16-321.16-145.47-322.53-322.09-1.4-180.49,144.53-327.28,324.7-327.28,22.38,0,44.25,2.27,65.36,6.6,5.04,1.03,5.52,8.11.64,9.72-129.46,42.7-222.86,164.63-222.86,308.38s93.4,265.68,222.85,308.35c4.89,1.61,4.41,8.69-.64,9.72Z"/>
      <path class="cls-1" d="M552.21,982.76h-196.91c-3.79,0-6.87-3.07-6.87-6.87s3.07-6.87,6.87-6.87h196.91c3.79,0,6.87,3.07,6.87,6.87s-3.07,6.87-6.87,6.87Z"/>
      <path class="cls-1" d="M552.21,1053.01h-196.91c-3.79,0-6.87-3.07-6.87-6.87s3.07-6.87,6.87-6.87h196.91c3.79,0,6.87,3.07,6.87,6.87s-3.07,6.87-6.87,6.87Z"/>
      <path class="cls-1" d="M552.21,1123.27h-196.91c-3.79,0-6.87-3.07-6.87-6.87s3.07-6.87,6.87-6.87h196.91c3.79,0,6.87,3.07,6.87,6.87s-3.07,6.87-6.87,6.87Z"/>
      <path class="cls-2" d="M518.82,1285.13h-130.12c-3.79,0-6.87-3.07-6.87-6.87s3.07-6.87,6.87-6.87h130.12c3.79,0,6.87,3.07,6.87,6.87s-3.07,6.87-6.87,6.87Z"/>
    </g>
  </g>
</svg>