<?xml version="1.0" encoding="iso-8859-1"?>
<!-- Uploaded to: SVG Repo, www.svgrepo.com, Generator: SVG Repo Mixer Tools -->
<svg fill="#000000" height="800px" width="800px" version="1.1" id="Layer_1" xmlns="http://www.w3.org/2000/svg" xmlns:xlink="http://www.w3.org/1999/xlink" 
	 viewBox="0 0 512 512" xml:space="preserve">
<g>
	<g>
		<path d="M369.98,137.882c-5.887,0-10.665,4.778-10.665,10.665s4.778,10.665,10.665,10.665c5.887,0,10.665-4.778,10.665-10.665
			S375.867,137.882,369.98,137.882z"/>
	</g>
</g>
<g>
	<g>
		<path d="M369.98,169.163c-5.887,0-10.665,4.778-10.665,10.665c0,5.898,4.778,10.665,10.665,10.665
			c5.887,0,10.665-4.767,10.665-10.665C380.645,173.941,375.867,169.163,369.98,169.163z"/>
	</g>
</g>
<g>
	<g>
		<path d="M369.98,200.455c-5.887,0-10.665,4.767-10.665,10.665c0,5.887,4.778,10.665,10.665,10.665
			c5.887,0,10.665-4.778,10.665-10.665C380.645,205.222,375.867,200.455,369.98,200.455z"/>
	</g>
</g>
<g>
	<g>
		<path d="M369.98,231.736c-5.887,0-10.665,4.778-10.665,10.665s4.778,10.665,10.665,10.665c5.887,0,10.665-4.778,10.665-10.665
			S375.867,231.736,369.98,231.736z"/>
	</g>
</g>
<g>
	<g>
		<path d="M338.346,137.882c-5.898,0-10.665,4.778-10.665,10.665s4.767,10.665,10.665,10.665c5.887,0,10.665-4.778,10.665-10.665
			S344.234,137.882,338.346,137.882z"/>
	</g>
</g>
<g>
	<g>
		<path d="M338.346,169.163c-5.898,0-10.665,4.778-10.665,10.665c0,5.898,4.767,10.665,10.665,10.665
			c5.887,0,10.665-4.767,10.665-10.665C349.012,173.941,344.234,169.163,338.346,169.163z"/>
	</g>
</g>
<g>
	<g>
		<path d="M338.346,200.455c-5.898,0-10.665,4.767-10.665,10.665c0,5.887,4.767,10.665,10.665,10.665
			c5.887,0,10.665-4.778,10.665-10.665C349.012,205.222,344.234,200.455,338.346,200.455z"/>
	</g>
</g>
<g>
	<g>
		<path d="M338.346,231.736c-5.898,0-10.665,4.778-10.665,10.665s4.767,10.665,10.665,10.665c5.887,0,10.665-4.778,10.665-10.665
			S344.234,231.736,338.346,231.736z"/>
	</g>
</g>
<g>
	<g>
		<path d="M306.702,137.882c-5.887,0-10.665,4.778-10.665,10.665s4.778,10.665,10.665,10.665c5.887,0,10.665-4.778,10.665-10.665
			S312.59,137.882,306.702,137.882z"/>
	</g>
</g>
<g>
	<g>
		<path d="M306.702,169.163c-5.887,0-10.665,4.778-10.665,10.665c0,5.898,4.778,10.665,10.665,10.665
			c5.887,0,10.665-4.767,10.665-10.665C317.368,173.941,312.59,169.163,306.702,169.163z"/>
	</g>
</g>
<g>
	<g>
		<path d="M306.702,200.455c-5.887,0-10.665,4.767-10.665,10.665c0,5.887,4.778,10.665,10.665,10.665
			c5.887,0,10.665-4.778,10.665-10.665C317.368,205.222,312.59,200.455,306.702,200.455z"/>
	</g>
</g>
<g>
	<g>
		<path d="M306.702,231.736c-5.887,0-10.665,4.778-10.665,10.665s4.778,10.665,10.665,10.665c5.887,0,10.665-4.778,10.665-10.665
			S312.59,231.736,306.702,231.736z"/>
	</g>
</g>
<g>
	<g>
		<path d="M465.798,62.318H46.193C20.722,62.318,0,83.04,0,108.509v294.981c0,25.471,20.722,46.191,46.193,46.191h419.604
			c25.476,0,46.203-20.721,46.203-46.191V108.509C512,83.04,491.274,62.318,465.798,62.318z M490.669,403.491
			c0,13.708-11.158,24.861-24.872,24.861H46.193c-13.709,0-24.862-11.153-24.862-24.861V108.509
			c0-13.708,11.153-24.861,24.862-24.861h419.605c13.713,0,24.872,11.153,24.872,24.861V403.491z"/>
	</g>
</g>
<g>
	<g>
		<path d="M225.603,105.086H55.492c-5.889,0-10.665,4.775-10.665,10.665v159.446c0,5.89,4.776,10.665,10.665,10.665h170.112
			c5.89,0,10.665-4.775,10.665-10.665V115.751C236.269,109.861,231.493,105.086,225.603,105.086z M214.938,264.532H66.157V126.416
			h148.781V264.532z"/>
	</g>
</g>
<g>
	<g>
		<path d="M459.707,105.086h-190.29c-5.889,0-10.665,4.775-10.665,10.665v159.446c0,5.89,4.776,10.665,10.665,10.665h190.29
			c5.89,0,10.665-4.775,10.665-10.665V115.751C470.372,109.861,465.596,105.086,459.707,105.086z M449.042,264.532h-168.96V126.416
			h168.96V264.532z"/>
	</g>
</g>
<g>
	<g>
		<path d="M424.554,137.882h-22.93c-5.889,0-10.665,4.775-10.665,10.665s4.776,10.665,10.665,10.665h22.93
			c5.89,0,10.665-4.775,10.665-10.665S430.443,137.882,424.554,137.882z"/>
	</g>
</g>
<g>
	<g>
		<path d="M424.554,169.163h-22.93c-5.889,0-10.665,4.775-10.665,10.665s4.776,10.665,10.665,10.665h22.93
			c5.89,0,10.665-4.775,10.665-10.665S430.443,169.163,424.554,169.163z"/>
	</g>
</g>
<g>
	<g>
		<path d="M424.554,200.455h-22.93c-5.889,0-10.665,4.775-10.665,10.665s4.776,10.665,10.665,10.665h22.93
			c5.89,0,10.665-4.775,10.665-10.665S430.443,200.455,424.554,200.455z"/>
	</g>
</g>
<g>
	<g>
		<path d="M424.554,231.736h-22.93c-5.889,0-10.665,4.775-10.665,10.665s4.776,10.665,10.665,10.665h22.93
			c5.89,0,10.665-4.775,10.665-10.665S430.443,231.736,424.554,231.736z"/>
	</g>
</g>
<g>
	<g>
		<path d="M319.458,314.307H74.87c-16.566,0-30.044,13.474-30.044,30.034v33.777c0,16.566,13.478,30.044,30.044,30.044h244.588
			c16.561,0,30.034-13.478,30.034-30.044v-33.777C349.492,327.781,336.018,314.307,319.458,314.307z M328.161,378.118
			c0,4.805-3.904,8.714-8.703,8.714H74.87c-4.805,0-8.714-3.909-8.714-8.714v-33.777c0-4.798,3.909-8.703,8.714-8.703h244.588
			c4.799,0,8.703,3.904,8.703,8.703V378.118z"/>
	</g>
</g>
<g>
	<g>
		<path d="M287.547,350.569h-4.619c-5.889,0-10.665,4.775-10.665,10.665c0,5.891,4.776,10.665,10.665,10.665h4.619
			c5.891,0,10.665-4.775,10.665-10.665C298.213,355.344,293.437,350.569,287.547,350.569z"/>
	</g>
</g>
<g>
	<g>
		<path d="M249.6,350.569H106.781c-5.889,0-10.665,4.775-10.665,10.665c0,5.891,4.776,10.665,10.665,10.665H249.6
			c5.89,0,10.665-4.775,10.665-10.665C260.266,355.344,255.49,350.569,249.6,350.569z"/>
	</g>
</g>
<g>
	<g>
		<path d="M459.707,319.992h-72.396c-5.889,0-10.665,4.775-10.665,10.665c0,5.891,4.776,10.665,10.665,10.665h72.396
			c5.89,0,10.665-4.775,10.665-10.665C470.372,324.767,465.596,319.992,459.707,319.992z"/>
	</g>
</g>
<g>
	<g>
		<path d="M423.509,319.992c-5.889,0-10.665,4.775-10.665,10.665v30.577c0,5.891,4.776,10.665,10.665,10.665
			c5.889,0,10.665-4.775,10.665-10.665v-30.577C434.174,324.767,429.398,319.992,423.509,319.992z"/>
	</g>
</g>
</svg>