<?xml version="1.0" ?>
<!DOCTYPE svg  PUBLIC '-//W3C//DTD SVG 1.1//EN'  'http://www.w3.org/Graphics/SVG/1.1/DTD/svg11.dtd'>
<!-- Uploaded to: SVG Repo, www.svgrepo.com, Generator: SVG Repo Mixer Tools -->
<svg fill="#000000" width="800px" height="800px" viewBox="0 0 48 48" style="fill-rule:evenodd;clip-rule:evenodd;stroke-linejoin:round;stroke-miterlimit:1.41421;" version="1.1" xml:space="preserve" xmlns="http://www.w3.org/2000/svg" xmlns:serif="http://www.serif.com/" xmlns:xlink="http://www.w3.org/1999/xlink">
<g id="data_visualiation_graph">
<path d="M3.552,35.724L3.552,12.795C3.552,11.125 4.907,9.769 6.578,9.769L41.227,9.769C42.895,9.769 44.255,11.123 44.255,12.795L44.255,35.724C44.255,37.395 42.897,38.75 41.227,38.75L6.578,38.75C4.907,38.75 3.552,37.395 3.552,35.724ZM42.34,35.724L42.34,12.795C42.34,12.184 41.841,11.684 41.227,11.684L6.578,11.684C5.965,11.684 5.466,12.182 5.466,12.795L5.466,35.724C5.466,36.337 5.965,36.835 6.578,36.835L41.227,36.835C41.839,36.835 42.34,36.337 42.34,35.724Z"/>
<path d="M6.913,13.608C6.913,13.101 7.327,12.689 7.833,12.689C8.339,12.689 8.75,13.101 8.75,13.608C8.75,14.113 8.339,14.525 7.833,14.525C7.327,14.525 6.913,14.113 6.913,13.608ZM9.514,13.608C9.514,13.101 9.924,12.689 10.431,12.689C10.938,12.689 11.35,13.101 11.35,13.608C11.35,14.113 10.938,14.525 10.431,14.525C9.924,14.525 9.514,14.113 9.514,13.608ZM12.113,13.608C12.113,13.101 12.525,12.689 13.03,12.689C13.535,12.689 13.949,13.101 13.949,13.608C13.949,14.113 13.535,14.525 13.03,14.525C12.525,14.525 12.113,14.113 12.113,13.608Z"/>
<path d="M8.09,35.247L8.088,34.586L16.104,25.995L24.061,25.995L27.359,31.121L39.037,17.969L39.037,35.247L8.09,35.247Z"/>
<path d="M8.09,31.743L8.09,30.582L9.25,30.582L9.25,31.743L8.09,31.743ZM8.09,28.237L8.09,27.078L9.25,27.078L9.25,28.237L8.09,28.237ZM11.791,28.237L11.791,27.078L12.95,27.078L12.95,28.237L11.791,28.237ZM26.775,28.237L26.775,27.078L27.936,27.078L27.936,28.237L26.775,28.237ZM8.088,24.735L8.088,23.576L9.248,23.576L9.248,24.735L8.088,24.735ZM11.789,24.735L11.789,23.576L12.948,23.576L12.948,24.735L11.789,24.735ZM15.587,24.735L15.587,23.578L16.747,23.578L16.747,24.735L15.587,24.735ZM19.289,24.735L19.289,23.578L20.448,23.578L20.448,24.735L19.289,24.735ZM22.99,24.735L22.99,23.576L24.147,23.576L24.147,24.735L22.99,24.735ZM26.773,24.735L26.773,23.576L27.934,23.576L27.934,24.735L26.773,24.735ZM30.474,24.735L30.474,23.576L31.634,23.576L31.634,24.735L30.474,24.735ZM8.088,21.231L8.088,20.07L9.248,20.07L9.248,21.231L8.088,21.231ZM11.789,21.231L11.789,20.07L12.948,20.07L12.948,21.231L11.789,21.231ZM15.587,21.231L15.587,20.073L16.747,20.073L16.747,21.231L15.587,21.231ZM19.289,21.231L19.289,20.073L20.448,20.073L20.448,21.231L19.289,21.231ZM22.99,21.231L22.99,20.07L24.147,20.07L24.147,21.231L22.99,21.231ZM26.773,21.231L26.773,20.07L27.934,20.07L27.934,21.231L26.773,21.231ZM30.474,21.231L30.474,20.07L31.634,20.07L31.634,21.231L30.474,21.231ZM34.177,21.229L34.177,20.07L35.334,20.07L35.334,21.229L34.177,21.229ZM8.088,17.726L8.088,16.566L9.248,16.566L9.248,17.726L8.088,17.726ZM11.789,17.726L11.789,16.566L12.948,16.566L12.948,17.726L11.789,17.726ZM15.587,17.726L15.587,16.568L16.747,16.568L16.747,17.726L15.587,17.726ZM19.289,17.726L19.289,16.568L20.448,16.568L20.448,17.726L19.289,17.726ZM22.99,17.726L22.99,16.566L24.147,16.566L24.147,17.726L22.99,17.726ZM26.773,17.726L26.773,16.566L27.934,16.566L27.934,17.726L26.773,17.726ZM30.474,17.726L30.474,16.566L31.634,16.566L31.634,17.726L30.474,17.726ZM34.177,17.723L34.177,16.566L35.334,16.566L35.334,17.723L34.177,17.723ZM37.877,17.723L37.877,16.564L39.035,16.564L39.035,17.723L37.877,17.723Z" id="Group_52"/>
</g>
</svg>